<?xml version="1.0" encoding="UTF-8"?>
<svg id="Calque_2" data-name="Calque 2" xmlns="http://www.w3.org/2000/svg" viewBox="0 0 313.42 150.49">
  <g id="Calque_1-2" data-name="Calque 1">
    <g>
      <path d="M77.39,119.16c-5.51.25-11.22-.19-16.87-1.25-7.26-1.36-14.15-3.74-20.35-7.85-1.67-1.11-3.17-2.46-4.75-3.69-4.54-3.52-7.75-8.16-10.67-13-2.06-3.41-3.53-7.1-4.72-10.91-1.36-4.38-2.27-8.84-2.67-13.39-.28-3.2-.27-6.43-.35-9.64-.16-6.26.44-12.46,1.87-18.55,1.54-6.56,4.08-12.72,7.91-18.31,2.62-3.82,5.68-7.22,9.24-10.16,2.94-2.42,6.17-4.42,9.59-6.12,6.28-3.13,12.94-4.87,19.89-5.74,5.88-.74,11.78-.59,17.66-.35,6.23.25,12.36,1.32,18.31,3.41,6.47,2.27,12.44,5.38,17.58,9.91,4.36,3.84,7.9,8.34,10.66,13.51,3.59,6.73,5.43,13.95,6.25,21.43.48,4.39.63,8.85.55,13.27-.12,6.48-.78,12.93-2.48,19.23-1.52,5.61-3.81,10.85-7,15.74-2.81,4.29-6.31,7.91-10.27,11.08-5.08,4.06-10.84,6.87-17.08,8.76-4.92,1.49-9.95,2.22-15.04,2.61-2.33.18-4.68.03-7.27.03ZM76.74,92.36c1.42-.09,2.85-.08,4.25-.3,1.44-.23,2.87-.59,4.25-1.05,6.58-2.22,10.88-6.7,12.84-13.34.98-3.32,1.88-6.66,2-10.17.07-2.08.41-4.15.51-6.23.18-3.93-.13-7.84-.71-11.73-.65-4.41-1.67-8.68-4.13-12.52-2.07-3.23-4.81-5.67-8.18-7.38-5.09-2.58-10.53-2.98-16.03-1.94-6.61,1.25-11.5,5-14.61,10.99-3.11,5.99-3.64,12.54-3.88,19.12-.12,3.34-.03,6.68.4,10.01.56,4.38,1.38,8.66,3.32,12.67,1.37,2.84,3.28,5.25,5.74,7.17,4.17,3.25,8.92,4.85,14.24,4.7Z"/>
      <path d="M293.13,29.27c0,7.7,0,15.39,0,23.09-.01,15.81-.04,31.62-.05,47.44,0,4.81.02,9.62.03,14.43,0,.71.05,1.42.05,2.13,0,.71-.34,1.09-1.08,1.07-.21,0-.42,0-.63,0-10.76,0-21.51,0-32.27,0-2.3,0-2.33-.04-2.33-2.3,0-13.94,0-27.87,0-41.81q0-2.3-2.29-2.3c-8.24,0-16.49,0-24.73,0-.25,0-.5,0-.75,0-1.49-.02-1.55-.09-1.2-1.49.14-.57.23-1.15.41-1.71.33-1.02.36-1.02-.7-1.25-3.19-.69-6.38-1.34-9.57-2.05-4.16-.93-8.32-1.89-12.48-2.84-1.65-.38-1.8-.25-2.4,1.3-.96,2.5-1.96,4.97-2.98,7.44-.4.96-.65,1.04-1.47.37-1.95-1.58-3.87-3.19-5.76-4.84-1.95-1.7-3.89-3.42-5.77-5.19-1.49-1.4-2.9-2.89-4.35-4.34-.47-.46-.3-.75.17-1.09,3.8-2.67,7.55-5.4,11.38-8.03,3.55-2.43,5.98-5.78,8.07-9.44,1.58-2.75,2.63-5.73,2.99-8.86.38-3.32.28-6.64-.78-9.92-1.7-5.25-5.06-9.19-9.39-12.37-2.61-1.91-5.53-3.28-8.65-4.21-.21-.06-.4-.22-.59-.33.21-.09.42-.22.64-.27.24-.05.5-.02.75-.02,9.71,0,19.42,0,29.13,0,.33,0,.67.01,1,.02.77.02,1.15.42,1.16,1.18,0,.54.02,1.09.02,1.63,0,11.8,0,23.6,0,35.41,0,2.18,0,2.19,2.14,2.19,11.3,0,22.6,0,33.9,0,.38,0,.75,0,1.13-.03.6-.03.92-.36.95-.96.02-.42.03-.84.03-1.25,0-6.57-.02-13.14.01-19.71.02-4.27.12-8.53.17-12.8.01-1.38-.1-2.76-.03-4.13.08-1.44.23-1.54,1.68-1.54,6.11-.01,12.22,0,18.33,0,4.69,0,9.37,0,14.06,0,.38,0,.75,0,1.13.02.54.02.86.28.86.86,0,.25,0,.5,0,.75,0,8.58,0,17.16,0,25.74.02,0,.04,0,.06,0Z"/>
      <path d="M162.43,98.71c-4.51.2-8.51-1.13-12.05-3.88-3.26-2.54-5.28-5.87-5.6-9.99-.27-3.41.87-6.48,3.16-9.1,1.99-2.29,4.35-4.14,6.75-5.95.7-.53,1.2-.48,1.85.12,3.78,3.54,7.52,7.12,11.41,10.54,4.1,3.61,8.34,7.08,12.54,10.58,1.12.93,1.14,1.12-.05,1.85-4.38,2.7-9.01,4.78-14.14,5.57-1.27.2-2.58.18-3.87.26Z"/>
      <path d="M158.38,26.83c.19-3.72,2.51-7.18,6.13-8.57,3.35-1.29,6.85-1.34,10.15.05,2.83,1.19,4.71,3.35,5.18,6.57.39,2.61-.39,4.9-1.86,6.94-2.32,3.22-5.27,5.8-8.67,7.85-.21.13-.44.25-.65.38-1.56.98-1.89.96-3-.49-1.82-2.38-3.63-4.78-5.36-7.23-1.18-1.67-1.78-3.58-1.93-5.5Z"/>
      <path d="M228.52,150.37c-2.43,0-4.85.01-7.28,0-1.37,0-1.56-.17-1.56-1.5-.02-5.1-.02-10.21,0-15.31,0-1.32.22-1.54,1.55-1.55,4.85-.02,9.71-.07,14.56.02,3.68.07,5.81,3.97,3.99,7.18-.28.49-.79.85-1.19,1.28.48.32,1.06.57,1.43.99,1.39,1.57,1.08,6.28-.48,7.64-1.05.92-2.36,1.25-3.73,1.26-2.43.02-4.85,0-7.28,0h0ZM229.42,148.06s0-.02,0-.03c1.97,0,3.93.03,5.9-.01,1.03-.02,2.01-.31,2.53-1.34,1.19-2.35.01-4.53-2.59-4.81-.08,0-.17-.02-.25-.02-3.77,0-7.53-.02-11.3,0-1.02,0-1.21.23-1.24,1.3-.03,1.17-.03,2.34,0,3.51.03,1.18.22,1.38,1.42,1.4,1.84.03,3.68,0,5.52,0ZM229.22,134.3c-1.67,0-3.34,0-5.01,0-1.65,0-1.74.1-1.75,1.8,0,.58,0,1.17,0,1.75.03,1.49.16,1.63,1.68,1.64,3.26.01,6.51.02,9.77-.01.7,0,1.45-.05,2.09-.31.52-.21,1.12-.68,1.32-1.19.79-1.95-.14-3.39-2.22-3.64-.41-.05-.83-.05-1.25-.05-1.54,0-3.09,0-4.63,0Z"/>
      <path d="M117.61,131.8c2.24.22,4.29.29,6.3.66,2.24.41,3.44,2.39,3.05,4.62-.1.6-.53.71-1.01.7-.6,0-1.31.19-1.62-.6-.07-.19-.1-.41-.1-.62.03-1.45-.7-2.15-2.31-2.21-2.55-.09-5.1-.06-7.65,0-.88.02-1.8.25-2.11,1.27-.3,1.01.17,1.79.91,2.43.28.24.59.47.92.65,3.71,1.94,7.42,3.86,11.13,5.78.76.39.96.27,1.06-.55.04-.33.02-.67.03-1,.05-1.32,1.02-1.95,2.18-1.35.29.15.55.64.57,1,.06.87.08,1.77-.09,2.62-.16.84.12,1.24.83,1.56.69.3,1.34.68,2.01,1.02.82.41.57.98.26,1.57-.31.61-.64,1.12-1.44.67-.29-.16-.6-.3-.89-.47-1.02-.6-1.9-.87-3.05.01-.72.56-1.88.74-2.85.76-3.93.08-7.86.07-11.79.02-2.88-.04-4.68-1.85-4.8-4.71-.03-.67-.01-1.34,0-2.01.05-1.74.72-3.09,2.42-3.75.68-.26.92-.52.44-1.26-.88-1.37-.76-2.88-.21-4.35.36-.98,1.14-1.6,2.14-1.75,1.93-.31,3.88-.5,5.66-.72ZM117.28,148.05s0,.08,0,.13c2.25-.13,4.49-.24,6.74-.39.29-.02.56-.26.84-.4-.21-.19-.38-.42-.62-.55-3.39-1.8-6.78-3.61-10.2-5.35-1.98-1.01-3.84.09-4.03,2.3-.04.46-.04.92-.03,1.38.04,2.03.77,2.81,2.79,2.88,1.5.05,3,0,4.51,0Z"/>
      <path d="M63.74,150.47c-2.34-.1-4.69-.05-7.01-.35-3.01-.39-4.25-1.7-4.64-4.72-.4-3.12-.39-6.25.28-9.36.47-2.16,1.74-3.38,3.91-3.64,1.58-.18,3.16-.37,4.74-.37,3.14-.01,6.28.01,9.41.19,3.06.17,3.83,2.15,4.08,4.51.07.67-.3,1.04-.96,1.03-.63,0-1.41.26-1.66-.68-.06-.24-.08-.49-.13-.74-.16-.99-.76-1.56-1.73-1.73-.7-.12-1.41-.3-2.11-.29-3.47.05-6.94.09-10.4.26-2.11.1-2.75.85-2.77,2.93-.03,2.55-.04,5.11.01,7.66.04,1.84.68,2.59,2.48,2.66,3.59.13,7.19.13,10.79.17.37,0,.75-.06,1.12-.12,2.11-.32,2.7-.97,2.82-3.13.06-1.11-.13-1.37-1.24-1.38-2.3-.02-4.6,0-6.91-.01-.93,0-1.11-.23-1.12-1.1,0-.72.26-1.08,1.03-1.07,3.31.02,6.61.02,9.92.02.62,0,1.15.22,1.1.9-.12,1.74-.18,3.51-.55,5.2-.35,1.6-1.59,2.52-3.21,2.8-.78.13-1.57.23-2.36.25-1.63.04-3.26.01-4.9.01,0,.03,0,.07,0,.1Z"/>
      <path d="M199.55,117.43c-5.06,0-10.12,0-15.19-.01-.59,0-1.49.27-1.64-.48-.16-.86.8-.93,1.4-1.09,3.8-1.06,7.45-2.49,10.93-4.35,1.84-.99,3.65-2.04,5.42-3.15.71-.44,1.2-.46,1.92-.01,4.47,2.79,8.96,5.53,13.44,8.31.18.11.29.35.43.52-.22.09-.43.22-.66.25-.37.05-.75.02-1.13.02-4.98,0-9.96,0-14.94,0h0Z"/>
      <path d="M178.93,150.48c-2.5-.11-5.03-.05-7.5-.36-2.95-.37-4.09-1.58-4.5-4.53-.46-3.28-.5-6.58.19-9.85.34-1.63,1.28-2.73,2.86-3.17,1.08-.3,2.21-.51,3.32-.54,3.01-.07,6.03-.09,9.03,0,1.45.05,2.9.35,4.33.62,1.5.28,2.42,1.3,2.83,2.72.26.92.5,1.88.53,2.83.08,2.21.04,4.43.01,6.65,0,.5-.11,1-.21,1.49-.51,2.49-2.19,3.95-4.74,4.03-2.05.06-4.1.01-6.15.01,0,.04,0,.08,0,.11ZM178.18,134.19c-2,.12-4.17.21-6.33.4-1.28.11-2.12.88-2.15,2.2-.05,2.91-.13,5.84.03,8.74.1,1.75.73,2.3,2.51,2.36,3.54.12,7.09.07,10.64.07.62,0,1.25-.1,1.87-.2,1.51-.25,2.34-.93,2.4-2.45.11-2.79.11-5.6-.02-8.39-.08-1.58-.81-2.22-2.41-2.38-2.11-.2-4.25-.24-6.54-.36Z"/>
      <path d="M275.57,150.48c-2.5-.11-5.02-.07-7.5-.37-2.88-.36-4.06-1.68-4.46-4.59-.42-2.99-.45-6,.05-8.99.46-2.76,1.42-3.72,4.15-4.31.37-.08.74-.17,1.11-.17,3.97.02,7.94.02,11.91.13,1.02.03,2.05.37,3.05.67,1.11.33,1.86,1.1,2.19,2.23.2.68.5,1.37.51,2.06.05,2.96.21,5.94-.07,8.88-.27,2.9-2.13,4.3-5.04,4.36-.08,0-.17,0-.25,0-1.88,0-3.76,0-5.65,0,0,.04,0,.07,0,.11ZM274.44,148.16c2.28-.11,4.54-.14,6.78-.36,1.91-.19,2.64-.98,2.7-2.84.08-2.51.08-5.02-.02-7.53-.08-2.04-.68-2.75-2.72-2.9-2.91-.21-5.84-.2-8.77-.21-1.25,0-2.51.08-3.75.23-1.48.19-2.04.68-2.25,2.1-.43,3.03-.43,6.08,0,9.12.18,1.25.88,1.97,2.15,2.06,1.96.13,3.92.22,5.86.33Z"/>
      <path d="M27.33,141.15c0-2.51-.01-5.02,0-7.53.01-1.41.21-1.62,1.6-1.62,4.68-.02,9.37-.06,14.05,0,3.87.06,5.46,1.74,5.49,5.6,0,.62-.04,1.26-.14,1.87-.17,1.13-.64,2.07-1.74,2.59-.32.15-.71.33-.08.6,1.21.53,1.57,1.56,1.61,2.75.04,1.17.05,2.34.02,3.51-.03,1.17-.28,1.41-1.27,1.41-1.01,0-1.22-.24-1.28-1.39-.05-1.17-.08-2.34-.2-3.5-.11-1.08-.77-1.73-1.87-1.88-.58-.08-1.16-.2-1.74-.21-3.39-.02-6.78-.02-10.16,0-1.36,0-1.49.14-1.51,1.53-.02,1.38.01,2.76-.02,4.14-.03,1.1-.29,1.33-1.35,1.32-1.07,0-1.37-.22-1.39-1.31-.04-2.63-.01-5.27-.01-7.9h-.01ZM36.84,141.2h0c.67,0,1.34.03,2,0,1.58-.07,3.16-.12,4.74-.25.96-.08,1.59-.71,1.9-1.61,1.02-3.02-.2-4.91-3.35-4.99-3.59-.09-7.18-.04-10.78-.02-1.03,0-1.21.22-1.23,1.29-.03,1.42-.03,2.84,0,4.26.02,1.14.19,1.3,1.33,1.32,1.8.02,3.59,0,5.39,0Z"/>
      <path d="M12.29,150.49c-2.58-.12-5.18-.11-7.75-.41-2.46-.29-3.66-1.51-4.08-3.92-.61-3.48-.64-6.97.09-10.46.37-1.76,1.38-2.84,3.08-3.25,1.01-.24,2.06-.42,3.09-.44,3.01-.06,6.02-.09,9.03.01,1.49.05,2.98.35,4.45.68,1.35.3,2.33,1.14,2.62,2.57.23,1.1.53,2.21.54,3.32.02,2.54.03,5.11-.25,7.63-.3,2.71-2.04,4.09-4.79,4.14-2.01.04-4.01,0-6.02,0,0,.04,0,.08,0,.12ZM11.26,148.16c2.02-.11,4.23-.2,6.44-.35,2.06-.14,2.91-1.02,3.02-3.1.06-1.21.04-2.42.03-3.64,0-1.25.04-2.52-.08-3.76-.18-1.85-.84-2.5-2.64-2.77-.82-.12-1.66-.21-2.49-.22-2.17-.03-4.35-.04-6.52,0-1.29.02-2.59.1-3.87.26-1.3.17-2.03.83-2.08,2.12-.1,2.87-.15,5.75-.03,8.62.07,1.71.72,2.33,2.4,2.52,1.86.21,3.75.21,5.82.32Z"/>
      <path d="M313.42,141.27c0,2.47,0,4.94,0,7.41,0,1.57-.14,1.6-1.74,1.73-1.55.12-2.65-.42-3.75-1.53-4.45-4.48-8.98-8.87-13.5-13.29-.22-.22-.54-.34-.81-.51-.09.34-.27.68-.27,1.03-.02,3.93-.01,7.87-.01,11.8,0,.33,0,.67,0,1-.04,1.22-.27,1.47-1.35,1.46-1.01-.01-1.27-.25-1.27-1.4-.02-5.19-.02-10.38,0-15.56,0-1.17.22-1.3,1.42-1.41,1.69-.16,2.99.35,4.23,1.62,4.39,4.47,8.92,8.83,13.39,13.22.15.15.29.3.46.43.37.28.54.11.56-.28.02-.38.02-.75.02-1.13,0-4.1,0-8.2,0-12.3,0-1.29.38-1.6,1.54-1.54.9.05,1.09.58,1.09,1.35-.01,2.13,0,4.27,0,6.4,0,.5,0,1,0,1.51Z"/>
      <path d="M87.76,150.37c-2.51,0-5.02,0-7.53,0-1.53,0-1.69-.15-1.7-1.62-.01-5.02-.01-10.04,0-15.07,0-1.48.19-1.68,1.67-1.68,4.98-.02,9.96-.01,14.94,0,.62,0,1.42-.15,1.6.8.2,1.05-.17,1.47-1.4,1.48-3.93.02-7.87,0-11.8.01q-2.22,0-2.22,2.23c0,.71.04,1.43-.01,2.13-.06.84.32,1.12,1.11,1.1,1.38-.03,2.76,0,4.14,0,2.72,0,5.44,0,8.16,0,.57,0,1.21-.06,1.42.72.29,1.05-.08,1.57-1.24,1.57-3.77.02-7.53,0-11.3.01-.42,0-.84,0-1.26.02-.67.01-1,.38-1,1.03,0,1.3-.01,2.59,0,3.89,0,.65.37,1,1.02,1.02.75.02,1.51.02,2.26.03,3.6,0,7.2,0,10.8.02,1.2,0,1.47.27,1.51,1.2.03.83-.17,1.07-1.14,1.08-2.34.03-4.69.01-7.03.02-.33,0-.67,0-1,0Z"/>
      <path d="M141.27,141.18c0-2.59-.01-5.19,0-7.78,0-1.14.35-1.45,1.41-1.38.9.05,1.17.29,1.19,1.25.04,1.59.01,3.18.02,4.77.01,1.6.13,1.73,1.7,1.74,4.31.01,8.61.01,12.92,0,1.5,0,1.48-.03,1.44-1.58-.04-1.59-.05-3.18,0-4.77.04-1.23,1.08-1.83,2.18-1.29.23.11.41.4.51.64.09.22.06.49.06.74,0,5.1,0,10.2,0,15.31,0,1.27-.18,1.47-1.14,1.54-1.26.09-1.55-.17-1.56-1.45-.02-1.76-.05-3.51-.08-5.27-.03-1.37-.18-1.55-1.51-1.56-4.35-.01-8.7-.01-13.05,0-1.31,0-1.45.16-1.47,1.44-.02,1.84.01,3.68-.02,5.52-.02,1.12-.35,1.36-1.48,1.32-.78-.03-1.14-.38-1.13-1.16.01-1.46,0-2.93,0-4.39,0-1.21,0-2.43,0-3.64h0Z"/>
      <path d="M193.78,139.43c0-2.01-.02-4.02,0-6.02.01-1.12.3-1.4,1.29-1.39,1.02.01,1.32.27,1.33,1.36.02,3.72,0,7.45.02,11.17,0,2.53.48,3.29,2.97,3.38,3.67.15,7.35.03,11.02-.12,1.58-.07,1.98-.65,2.17-2.24.07-.62.08-1.25.08-1.88,0-3.39,0-6.78.02-10.16,0-1.33.55-1.72,1.81-1.48.92.17.92.86.92,1.53.02,2.8.03,5.61,0,8.41-.01,1.38-.08,2.76-.19,4.13-.2,2.48-1.13,3.53-3.54,3.99-.82.16-1.66.24-2.49.25-3.43.03-6.86.02-10.29,0-.7,0-1.43-.07-2.11-.25-1.49-.4-2.49-1.35-2.75-2.93-.13-.78-.24-1.57-.25-2.36-.04-1.8-.01-3.6-.01-5.4h0Z"/>
      <path d="M244.56,141.28c0-2.59-.02-5.19,0-7.78.01-1.13.23-1.37,1.12-1.47,1.23-.14,1.64.21,1.64,1.55.02,4.1,0,8.2.01,12.3q0,2.18,2.15,2.18c3.22,0,6.44,0,9.66,0,.42,0,.84.02,1.25.04.74.05.99.51.97,1.19-.01.65-.3,1.03-.97,1.05-.25.01-.5.02-.75.02-4.43,0-8.87,0-13.3,0-1.62,0-1.78-.16-1.79-1.81-.02-2.43,0-4.85,0-7.28h0Z"/>
    </g>
  </g>
</svg>